<?xml version="1.0" standalone="no"?>
<!DOCTYPE svg PUBLIC "-//W3C//DTD SVG 20010904//EN"
 "http://www.w3.org/TR/2001/REC-SVG-20010904/DTD/svg10.dtd">
<svg version="1.0" xmlns="http://www.w3.org/2000/svg"
 width="256.000000pt" height="256.000000pt" viewBox="0 0 256.000000 256.000000"
 preserveAspectRatio="xMidYMid meet">
<metadata>
Created by potrace 1.11, written by Peter Selinger 2001-2013
</metadata>
<g transform="translate(0.000000,256.000000) scale(0.100000,-0.100000)"
fill="#000000" stroke="none">
<path d="M1227 2534 c-1 -1 -31 -4 -67 -7 -208 -18 -423 -98 -605 -226 -143
-99 -264 -235 -377 -421 -17 -28 -77 -163 -84 -188 -2 -10 -15 -59 -29 -110
-80 -303 -34 -642 126 -924 22 -40 44 -75 47 -78 4 -3 19 -23 33 -45 44 -68
167 -192 257 -260 130 -97 261 -160 447 -215 112 -33 328 -45 475 -26 83 11
218 46 278 72 28 12 52 21 52 19 0 -2 42 19 93 47 239 129 420 317 538 559 39
79 103 268 95 277 -3 2 -1 13 4 22 22 41 32 279 17 400 -45 371 -260 712 -577
911 -130 82 -315 154 -445 174 -91 13 -120 16 -193 19 -45 1 -83 2 -85 0z"/>
</g>
</svg>
